<svg xmlns="http://www.w3.org/2000/svg" xmlns:xlink="http://www.w3.org/1999/xlink" id="Ebene_1" x="0px" y="0px" viewBox="0 0 462.2 132.7" style="enable-background:new 0 0 462.2 132.7;" xml:space="preserve"><style type="text/css">	.st0{fill-rule:evenodd;clip-rule:evenodd;}	.st1{fill-rule:evenodd;clip-rule:evenodd;fill:#BA9545;}</style><g>	<path class="st0" d="M36.3,24C57,3.4,90.3,3.3,111.2,23.7C99.3,9.9,81.9,1.9,63.7,2c-18.2,0.1-35.5,8.2-47.3,22.1  C29.6,24,36.3,24,36.3,24L36.3,24z"></path>	<path class="st1" d="M91.5,24.1C79.4,14.9,63.4,12.5,49,17.7c18.6-10.3,41.7-7.7,57.6,6.4C96.6,24.1,91.5,24.1,91.5,24.1L91.5,24.1  z"></path>	<path class="st0" d="M113.6,63.2c6.8,28.4-10.4,56.9-38.7,64.1c18-2.9,33.8-13.6,43.2-29.3s11.5-34.6,5.7-51.9  C117,57.5,113.6,63.2,113.6,63.2L113.6,63.2z"></path>	<path class="st1" d="M84.7,110.3c14.2-5.6,24.6-18,27.5-33c-0.9,21.3-15.1,39.7-35.4,45.9C82.1,114.6,84.7,110.3,84.7,110.3  L84.7,110.3z"></path>	<path class="st0" d="M42.7,110.2C14.5,103-2.7,74.4,4.2,46c-5.8,17.3-3.8,36.3,5.6,51.9c9.4,15.6,25.2,26.4,43.2,29.3  C46.2,115.9,42.7,110.2,42.7,110.2L42.7,110.2z"></path>	<path class="st1" d="M14.6,62.7c-1.7,15.2,4.4,30.1,16.3,39.8c-18.4-10.7-28-31.9-24-52.8C12,58.4,14.6,62.7,14.6,62.7L14.6,62.7z"></path>	<path class="st1" d="M126.7,30L25.8,39.9l-10.1,0.9l6.7,3.1l2.9,4.7L31.8,59l9.7,15.8C45,69.1,48.3,64,52,58.3l-9.9,1l-0.3,0  l-0.2-0.3l-6.6-10.5l-0.4-0.7l0.8-0.1L73,44L53.3,77.2L48,85.9l-6,9.9l-0.4,0.7l-0.4-0.7L35,86l-3.1-5.1L18.8,59.6L12.3,49  l-5.4-8.8L0.5,29.7L0,29h0.9h125.8h10.1L126.7,30L126.7,30z M83.3,43l38.1-3.9l-0.5,0.9L112.8,53l0,0L98,76.9l-1.6,2.6l-0.1,0.2  l-0.2,0.1l-8.5,2.3l4.2,4.3l0.3,0.3L91.8,87L64.2,132l-0.4,0.7l-0.4-0.7l-10.9-17.7l-6.1-9.9l-0.2-0.3l0.2-0.3l6-9.9  C62.8,76.9,73,60,83.3,43L83.3,43z M69.9,86.9l-9,14.9l-4.3-2.4l2.9,4.7l0,0l2.2,3.6l0.2,0.3l0,0l1.9,3l13.7-22.5l-2.4-3.1  L69.9,86.9L69.9,86.9z M78.4,72.9L88.9,70l10.3-16.5l-7.5,0.7l-8.4,0.8l4.7,2.1L78.4,72.9L78.4,72.9z"></path>	<path class="st0" d="M164.4,65h22.2c0,0.6,0,0.9,0,0.9c0,4.9-0.1,8.5-0.3,11c-0.4,4-2.4,6.4-6.2,7.2c-1.6,0.4-3.5,0.6-5.6,0.7  c-2.1,0.1-5.3,0.2-9.6,0.2c-5.5,0-9.3-0.2-11.6-0.5c-2.3-0.3-4.1-1-5.4-1.9c-0.9-0.7-1.6-1.5-2.1-2.5c-0.5-1-0.8-2.4-1-4.1  c-0.2-1.6-0.3-4.7-0.3-9.3c0-3.1,0.1-5.5,0.2-7.1c0.2-1.6,0.5-3,0.9-4.3c0.9-2.7,2.9-4.3,5.8-4.9c3.3-0.6,8.3-0.9,15-0.9  c4,0,7.2,0.1,9.5,0.3c2.3,0.2,4.2,0.6,5.7,1.1c2.4,0.8,3.9,2.6,4.4,5.3c0.3,1.4,0.4,3.2,0.4,5.6h-9.7c0-1-0.1-1.6-0.2-1.9  c-0.1-0.3-0.3-0.6-0.6-0.9c-0.5-0.4-1.7-0.7-3.4-0.8c-1.6-0.1-4-0.1-7.1-0.1c-3.3,0-5.7,0.1-7.2,0.2c-1.4,0.2-2.4,0.5-2.9,0.9  c-0.5,0.5-0.9,1.2-1.1,2.3c-0.2,1.1-0.3,2.9-0.3,5.5c0,2.9,0.1,4.9,0.3,6.1c0.2,1.1,0.5,2,1.1,2.4c0.5,0.5,1.2,0.7,2.1,0.8  c0.9,0.1,3.5,0.2,8,0.2c4.4,0,7.1-0.1,8-0.1c0.9-0.1,1.7-0.2,2.3-0.5c0.5-0.2,0.8-0.6,1-1.1c0.2-0.5,0.3-1.2,0.3-2.2  c0-0.2,0-0.5,0-1h-12.7V65L164.4,65z M194.7,50.1h12.7l10.4,13.8l9.9-13.8h12.6l-17.4,22.3v12.2h-10V72.4L194.7,50.1L194.7,50.1z   M249.8,50.1h17.6l9.5,22.4l9.5-22.4h17.5v34.5h-9.6l0.2-25.9h-1.6l-12,25.9h-8l-12-25.9h-1.7l0.2,25.9h-9.6V50.1L249.8,50.1z   M316.4,84.6V50.1h22.8c4.9,0,7.7,0.1,8.7,0.1c2.1,0.1,3.6,0.5,4.6,1.2c0.9,0.6,1.6,1.6,2,2.7c0.4,1.2,0.6,2.8,0.6,4.9  c0,2.5-0.3,4.3-0.9,5.5c-0.6,1.2-1.7,2-3.3,2.5c1.4,0.3,2.5,0.7,3.1,1.2c1.6,1.1,2.3,3.5,2.3,7.1c0,2.8-0.4,4.9-1.2,6.2  c-0.5,0.9-1.3,1.6-2.2,2c-0.9,0.4-2.2,0.7-3.9,0.8c-1.1,0.1-4.3,0.1-9.7,0.2H316.4L316.4,84.6z M325.6,63.7h13.7  c3,0,4.8-0.1,5.3-0.4c0.8-0.3,1.1-1.1,1.1-2.5c0-1.4-0.5-2.2-1.4-2.4c-0.4-0.1-2.1-0.2-5.1-0.2h-13.7V63.7L325.6,63.7z M325.6,76.3  h13.7c2.8,0,4.5,0,5-0.1c0.5,0,1-0.1,1.3-0.3c0.8-0.4,1.3-1.2,1.3-2.6c0-1.5-0.5-2.3-1.4-2.6c-0.3-0.1-2.4-0.2-6.2-0.2h-13.7V76.3  L325.6,76.3z M367.9,84.6V50.1h23.4c5.5,0,8.8,0.1,9.9,0.2c1.1,0.1,2.1,0.5,3.1,1.2c1.2,0.8,2,1.9,2.5,3.3c0.5,1.4,0.7,3.6,0.7,6.6  c0,2.5-0.1,4.4-0.4,5.5c-0.3,1.2-0.8,2.1-1.6,2.8c-0.9,0.8-2.1,1.3-3.8,1.6c2,0.2,3.5,0.8,4.4,1.9c0.5,0.7,0.8,1.4,1,2.4  c0.1,0.9,0.2,2.9,0.2,5.9v3.2h-9.5v-1.8c0-1.9-0.1-3.3-0.2-4.1c-0.1-0.8-0.4-1.4-0.7-1.9c-0.4-0.4-0.9-0.7-1.5-0.8  c-0.6-0.1-1.9-0.2-4-0.2h-13.7v8.7H367.9L367.9,84.6z M377.6,67.2h13.6c2.4-0.1,3.8-0.1,4.2-0.1c0.5,0,0.8-0.2,1.2-0.4  c0.4-0.3,0.7-0.7,0.9-1.3c0.2-0.6,0.3-1.4,0.3-2.6c0-1.1-0.1-2-0.3-2.5c-0.2-0.6-0.5-1-1-1.2c-0.3-0.2-0.7-0.3-1.2-0.3  c-0.5,0-1.8-0.1-4-0.1h-13.6V67.2L377.6,67.2z M440.3,49.6c6.9,0,11.6,0.2,14.2,0.6c3.7,0.5,6,2.5,6.8,5.7  c0.6,2.3,0.9,6.1,0.9,11.4c0,5.4-0.3,9.2-0.9,11.5c-0.8,3.3-3.1,5.2-6.8,5.7c-2.6,0.4-7.3,0.6-14.1,0.6c-6.9,0-11.7-0.2-14.3-0.6  c-3.7-0.5-6-2.5-6.8-5.7c-0.6-2.3-0.9-6.1-0.9-11.7c0-5.2,0.3-9,0.9-11.2c0.8-3.3,3.1-5.2,6.8-5.7  C428.7,49.8,433.4,49.6,440.3,49.6L440.3,49.6z M440.3,58.6c-5.1,0-8.2,0.1-9.3,0.4c-1.2,0.3-2,1.1-2.4,2.3c-0.4,1.2-0.6,3.5-0.6,7  c0,2.1,0.1,3.6,0.3,4.6c0.4,1.8,1.6,2.8,3.5,3c1.4,0.2,4.2,0.3,8.4,0.3c3.9,0,6.5-0.1,7.8-0.2c1.3-0.2,2.2-0.5,2.9-1  c0.6-0.5,0.9-1.2,1.1-2.1c0.2-0.9,0.3-2.4,0.3-4.5c0-2.5-0.1-4.3-0.2-5.5c-0.2-1.2-0.4-2-0.8-2.6c-0.5-0.7-1.4-1.2-2.5-1.4  C447.7,58.6,444.8,58.6,440.3,58.6L440.3,58.6z"></path></g></svg>